<mxfile host="app.diagrams.net" modified="2023-01-02T13:00:34.527Z" agent="5.0 (Windows NT 10.0; Win64; x64) AppleWebKit/537.36 (KHTML, like Gecko) Chrome/108.0.0.0 Safari/537.36" etag="AXdQyWvltjY0Px8xhoNX" version="20.7.4" type="github">
  <diagram name="Page-1" id="19d8dcba-68ad-dc05-1034-9cf7b2a963f6">
    <mxGraphModel dx="2029" dy="1071" grid="0" gridSize="10" guides="1" tooltips="1" connect="1" arrows="1" fold="1" page="1" pageScale="1" pageWidth="1100" pageHeight="850" background="none" math="0" shadow="0">
      <root>
        <mxCell id="0" />
        <mxCell id="1" parent="0" />
        <mxCell id="218ae93e1282097f-42" value="" style="edgeStyle=orthogonalEdgeStyle;rounded=1;html=1;labelBackgroundColor=none;endArrow=block;endFill=1;strokeColor=#4D4D4D;strokeWidth=2;fontFamily=Verdana;fontSize=12;fontStyle=1" parent="1" source="6257edae8c83ed4a-1" target="6257edae8c83ed4a-12" edge="1">
          <mxGeometry relative="1" as="geometry" />
        </mxCell>
        <mxCell id="218ae93e1282097f-43" value="" style="edgeStyle=orthogonalEdgeStyle;rounded=1;html=1;labelBackgroundColor=none;endArrow=block;endFill=1;strokeColor=#4D4D4D;strokeWidth=2;fontFamily=Verdana;fontSize=12;fontStyle=1" parent="1" source="6257edae8c83ed4a-1" target="6257edae8c83ed4a-9" edge="1">
          <mxGeometry relative="1" as="geometry" />
        </mxCell>
        <mxCell id="218ae93e1282097f-44" value="" style="edgeStyle=orthogonalEdgeStyle;rounded=1;html=1;labelBackgroundColor=none;endArrow=block;endFill=1;strokeColor=#4D4D4D;strokeWidth=2;fontFamily=Verdana;fontSize=12;fontStyle=1" parent="1" source="6257edae8c83ed4a-1" target="218ae93e1282097f-2" edge="1">
          <mxGeometry relative="1" as="geometry" />
        </mxCell>
        <mxCell id="218ae93e1282097f-46" value="" style="edgeStyle=orthogonalEdgeStyle;rounded=1;html=1;labelBackgroundColor=none;endArrow=block;endFill=1;strokeColor=#4D4D4D;strokeWidth=2;fontFamily=Verdana;fontSize=12;fontStyle=1;entryX=0.5;entryY=0;entryDx=0;entryDy=0;" parent="1" source="6257edae8c83ed4a-9" target="T4Bvhr1qhh-hrmVg9kVq-4" edge="1">
          <mxGeometry relative="1" as="geometry" />
        </mxCell>
        <mxCell id="218ae93e1282097f-47" value="" style="edgeStyle=orthogonalEdgeStyle;rounded=1;html=1;labelBackgroundColor=none;endArrow=block;endFill=1;strokeColor=#4D4D4D;strokeWidth=2;fontFamily=Verdana;fontSize=12;fontStyle=1;exitX=1;exitY=0.5;exitDx=0;exitDy=0;" parent="1" source="6257edae8c83ed4a-1" target="218ae93e1282097f-5" edge="1">
          <mxGeometry relative="1" as="geometry" />
        </mxCell>
        <mxCell id="218ae93e1282097f-48" value="" style="edgeStyle=orthogonalEdgeStyle;rounded=1;html=1;labelBackgroundColor=none;endArrow=block;endFill=1;strokeColor=#4D4D4D;strokeWidth=2;fontFamily=Verdana;fontSize=12;fontStyle=1;entryX=0.5;entryY=0;entryDx=0;entryDy=0;" parent="1" source="218ae93e1282097f-2" target="T4Bvhr1qhh-hrmVg9kVq-31" edge="1">
          <mxGeometry relative="1" as="geometry">
            <mxPoint x="1337" y="381" as="targetPoint" />
          </mxGeometry>
        </mxCell>
        <mxCell id="218ae93e1282097f-8" value="&lt;font style=&quot;font-size: 24px;&quot;&gt;用户注册登录&lt;/font&gt;" style="whiteSpace=wrap;html=1;rounded=1;shadow=0;comic=0;strokeWidth=2;fontFamily=Verdana;align=center;fontSize=12;fontStyle=1" parent="1" vertex="1">
          <mxGeometry x="493" y="394" width="40" height="260" as="geometry" />
        </mxCell>
        <mxCell id="T4Bvhr1qhh-hrmVg9kVq-9" style="edgeStyle=orthogonalEdgeStyle;rounded=0;orthogonalLoop=1;jettySize=auto;html=1;exitX=0.5;exitY=1;exitDx=0;exitDy=0;fontSize=24;" edge="1" parent="1" source="6257edae8c83ed4a-9">
          <mxGeometry relative="1" as="geometry">
            <mxPoint x="517" y="395" as="targetPoint" />
          </mxGeometry>
        </mxCell>
        <mxCell id="T4Bvhr1qhh-hrmVg9kVq-11" style="edgeStyle=orthogonalEdgeStyle;rounded=0;orthogonalLoop=1;jettySize=auto;html=1;exitX=0.5;exitY=1;exitDx=0;exitDy=0;entryX=0.5;entryY=0;entryDx=0;entryDy=0;fontSize=24;" edge="1" parent="1" source="6257edae8c83ed4a-9" target="T4Bvhr1qhh-hrmVg9kVq-5">
          <mxGeometry relative="1" as="geometry" />
        </mxCell>
        <mxCell id="T4Bvhr1qhh-hrmVg9kVq-13" style="edgeStyle=orthogonalEdgeStyle;rounded=0;orthogonalLoop=1;jettySize=auto;html=1;exitX=0.5;exitY=1;exitDx=0;exitDy=0;entryX=0.5;entryY=0;entryDx=0;entryDy=0;fontSize=24;" edge="1" parent="1" source="6257edae8c83ed4a-9" target="T4Bvhr1qhh-hrmVg9kVq-7">
          <mxGeometry relative="1" as="geometry" />
        </mxCell>
        <mxCell id="6257edae8c83ed4a-9" value="&lt;font style=&quot;font-size: 24px;&quot;&gt;系统基础功能&lt;/font&gt;" style="whiteSpace=wrap;html=1;rounded=1;shadow=0;comic=0;strokeWidth=2;fontFamily=Verdana;align=center;fontSize=12;fontStyle=1" parent="1" vertex="1">
          <mxGeometry x="547" y="191" width="200" height="50" as="geometry" />
        </mxCell>
        <mxCell id="T4Bvhr1qhh-hrmVg9kVq-24" style="edgeStyle=orthogonalEdgeStyle;rounded=0;orthogonalLoop=1;jettySize=auto;html=1;entryX=0.5;entryY=0;entryDx=0;entryDy=0;fontSize=24;exitX=0.5;exitY=1;exitDx=0;exitDy=0;" edge="1" parent="1" source="6257edae8c83ed4a-12" target="T4Bvhr1qhh-hrmVg9kVq-21">
          <mxGeometry relative="1" as="geometry">
            <mxPoint x="827" y="331" as="sourcePoint" />
          </mxGeometry>
        </mxCell>
        <mxCell id="T4Bvhr1qhh-hrmVg9kVq-25" style="edgeStyle=orthogonalEdgeStyle;rounded=0;orthogonalLoop=1;jettySize=auto;html=1;exitX=0.5;exitY=1;exitDx=0;exitDy=0;fontSize=24;" edge="1" parent="1" source="6257edae8c83ed4a-12" target="T4Bvhr1qhh-hrmVg9kVq-19">
          <mxGeometry relative="1" as="geometry" />
        </mxCell>
        <mxCell id="T4Bvhr1qhh-hrmVg9kVq-26" style="edgeStyle=orthogonalEdgeStyle;rounded=0;orthogonalLoop=1;jettySize=auto;html=1;exitX=0.5;exitY=1;exitDx=0;exitDy=0;entryX=0.5;entryY=0;entryDx=0;entryDy=0;fontSize=24;" edge="1" parent="1" source="6257edae8c83ed4a-12" target="T4Bvhr1qhh-hrmVg9kVq-20">
          <mxGeometry relative="1" as="geometry" />
        </mxCell>
        <mxCell id="T4Bvhr1qhh-hrmVg9kVq-27" style="edgeStyle=orthogonalEdgeStyle;rounded=0;orthogonalLoop=1;jettySize=auto;html=1;exitX=0.5;exitY=1;exitDx=0;exitDy=0;entryX=0.5;entryY=0;entryDx=0;entryDy=0;fontSize=24;" edge="1" parent="1" source="6257edae8c83ed4a-12" target="T4Bvhr1qhh-hrmVg9kVq-18">
          <mxGeometry relative="1" as="geometry" />
        </mxCell>
        <mxCell id="6257edae8c83ed4a-12" value="&lt;div&gt;&lt;span&gt;&lt;font style=&quot;font-size: 24px;&quot;&gt;群管理功能&lt;/font&gt;&lt;/span&gt;&lt;br&gt;&lt;/div&gt;" style="whiteSpace=wrap;html=1;rounded=1;shadow=0;comic=0;strokeWidth=2;fontFamily=Verdana;align=center;fontSize=12;fontStyle=1" parent="1" vertex="1">
          <mxGeometry x="767" y="191" width="200" height="50" as="geometry" />
        </mxCell>
        <mxCell id="6257edae8c83ed4a-1" value="&lt;font style=&quot;font-size: 24px;&quot;&gt;社交电商App&lt;/font&gt;" style="whiteSpace=wrap;html=1;rounded=1;shadow=0;comic=0;strokeWidth=2;fontFamily=Verdana;align=center;fontSize=12;fontStyle=1" parent="1" vertex="1">
          <mxGeometry x="1004" y="101" width="200" height="50" as="geometry" />
        </mxCell>
        <mxCell id="T4Bvhr1qhh-hrmVg9kVq-43" style="edgeStyle=orthogonalEdgeStyle;rounded=0;orthogonalLoop=1;jettySize=auto;html=1;exitX=0.5;exitY=1;exitDx=0;exitDy=0;fontSize=24;" edge="1" parent="1" source="218ae93e1282097f-2" target="T4Bvhr1qhh-hrmVg9kVq-30">
          <mxGeometry relative="1" as="geometry" />
        </mxCell>
        <mxCell id="T4Bvhr1qhh-hrmVg9kVq-44" style="edgeStyle=orthogonalEdgeStyle;rounded=0;orthogonalLoop=1;jettySize=auto;html=1;exitX=0.5;exitY=1;exitDx=0;exitDy=0;entryX=0.5;entryY=0;entryDx=0;entryDy=0;fontSize=24;" edge="1" parent="1" source="218ae93e1282097f-2" target="T4Bvhr1qhh-hrmVg9kVq-32">
          <mxGeometry relative="1" as="geometry" />
        </mxCell>
        <mxCell id="218ae93e1282097f-2" value="&lt;font style=&quot;font-size: 24px;&quot;&gt;数据分析功能&lt;/font&gt;" style="whiteSpace=wrap;html=1;rounded=1;shadow=0;comic=0;strokeWidth=2;fontFamily=Verdana;align=center;fontSize=12;fontStyle=1" parent="1" vertex="1">
          <mxGeometry x="1237" y="191" width="200" height="50" as="geometry" />
        </mxCell>
        <mxCell id="T4Bvhr1qhh-hrmVg9kVq-47" style="edgeStyle=elbowEdgeStyle;rounded=0;orthogonalLoop=1;jettySize=auto;html=1;exitX=0.5;exitY=1;exitDx=0;exitDy=0;entryX=0.5;entryY=0;entryDx=0;entryDy=0;fontSize=24;elbow=vertical;" edge="1" parent="1" source="218ae93e1282097f-5" target="T4Bvhr1qhh-hrmVg9kVq-33">
          <mxGeometry relative="1" as="geometry" />
        </mxCell>
        <mxCell id="T4Bvhr1qhh-hrmVg9kVq-48" style="edgeStyle=orthogonalEdgeStyle;rounded=0;orthogonalLoop=1;jettySize=auto;html=1;exitX=0.5;exitY=1;exitDx=0;exitDy=0;fontSize=24;" edge="1" parent="1" source="218ae93e1282097f-5" target="T4Bvhr1qhh-hrmVg9kVq-34">
          <mxGeometry relative="1" as="geometry" />
        </mxCell>
        <mxCell id="218ae93e1282097f-5" value="&lt;font style=&quot;font-size: 24px;&quot;&gt;扩展功能&lt;/font&gt;" style="whiteSpace=wrap;html=1;rounded=1;shadow=0;comic=0;strokeWidth=2;fontFamily=Verdana;align=center;fontSize=12;fontStyle=1" parent="1" vertex="1">
          <mxGeometry x="1507" y="191" width="200" height="50" as="geometry" />
        </mxCell>
        <mxCell id="T4Bvhr1qhh-hrmVg9kVq-2" value="" style="endArrow=classic;html=1;rounded=0;fontSize=24;" edge="1" parent="1" source="6257edae8c83ed4a-1" target="T4Bvhr1qhh-hrmVg9kVq-3">
          <mxGeometry width="50" height="50" relative="1" as="geometry">
            <mxPoint x="1104" y="241" as="sourcePoint" />
            <mxPoint x="1127" y="411" as="targetPoint" />
          </mxGeometry>
        </mxCell>
        <mxCell id="T4Bvhr1qhh-hrmVg9kVq-38" style="edgeStyle=orthogonalEdgeStyle;rounded=0;orthogonalLoop=1;jettySize=auto;html=1;exitX=0.5;exitY=1;exitDx=0;exitDy=0;entryX=0.5;entryY=0;entryDx=0;entryDy=0;fontSize=24;" edge="1" parent="1" source="T4Bvhr1qhh-hrmVg9kVq-3" target="T4Bvhr1qhh-hrmVg9kVq-29">
          <mxGeometry relative="1" as="geometry" />
        </mxCell>
        <mxCell id="T4Bvhr1qhh-hrmVg9kVq-39" style="edgeStyle=orthogonalEdgeStyle;rounded=0;orthogonalLoop=1;jettySize=auto;html=1;exitX=0.5;exitY=1;exitDx=0;exitDy=0;entryX=0.75;entryY=0;entryDx=0;entryDy=0;fontSize=24;" edge="1" parent="1" source="T4Bvhr1qhh-hrmVg9kVq-3" target="T4Bvhr1qhh-hrmVg9kVq-28">
          <mxGeometry relative="1" as="geometry" />
        </mxCell>
        <mxCell id="T4Bvhr1qhh-hrmVg9kVq-40" style="edgeStyle=orthogonalEdgeStyle;rounded=0;orthogonalLoop=1;jettySize=auto;html=1;exitX=0.5;exitY=1;exitDx=0;exitDy=0;fontSize=24;" edge="1" parent="1" source="T4Bvhr1qhh-hrmVg9kVq-3" target="T4Bvhr1qhh-hrmVg9kVq-36">
          <mxGeometry relative="1" as="geometry" />
        </mxCell>
        <mxCell id="T4Bvhr1qhh-hrmVg9kVq-3" value="&lt;font style=&quot;font-size: 24px;&quot;&gt;电商功能&lt;/font&gt;" style="whiteSpace=wrap;html=1;rounded=1;shadow=0;comic=0;strokeWidth=2;fontFamily=Verdana;align=center;fontSize=12;fontStyle=1" vertex="1" parent="1">
          <mxGeometry x="1004" y="191" width="200" height="50" as="geometry" />
        </mxCell>
        <mxCell id="T4Bvhr1qhh-hrmVg9kVq-4" value="&lt;font style=&quot;font-size: 24px;&quot;&gt;用户信息管理&lt;/font&gt;" style="whiteSpace=wrap;html=1;rounded=1;shadow=0;comic=0;strokeWidth=2;fontFamily=Verdana;align=center;fontSize=12;fontStyle=1" vertex="1" parent="1">
          <mxGeometry x="557" y="391" width="40" height="260" as="geometry" />
        </mxCell>
        <mxCell id="T4Bvhr1qhh-hrmVg9kVq-5" value="&lt;font style=&quot;font-size: 24px;&quot;&gt;好友聊天分享&lt;/font&gt;" style="whiteSpace=wrap;html=1;rounded=1;shadow=0;comic=0;strokeWidth=2;fontFamily=Verdana;align=center;fontSize=12;fontStyle=1" vertex="1" parent="1">
          <mxGeometry x="627" y="391" width="40" height="260" as="geometry" />
        </mxCell>
        <mxCell id="T4Bvhr1qhh-hrmVg9kVq-7" value="&lt;font style=&quot;font-size: 24px;&quot;&gt;创建群聊&lt;/font&gt;" style="whiteSpace=wrap;html=1;rounded=1;shadow=0;comic=0;strokeWidth=2;fontFamily=Verdana;align=center;fontSize=12;fontStyle=1" vertex="1" parent="1">
          <mxGeometry x="687" y="391" width="40" height="260" as="geometry" />
        </mxCell>
        <mxCell id="T4Bvhr1qhh-hrmVg9kVq-18" value="&lt;font style=&quot;font-size: 24px;&quot;&gt;团购&lt;/font&gt;" style="whiteSpace=wrap;html=1;rounded=1;shadow=0;comic=0;strokeWidth=2;fontFamily=Verdana;align=center;fontSize=12;fontStyle=1" vertex="1" parent="1">
          <mxGeometry x="947" y="391" width="40" height="260" as="geometry" />
        </mxCell>
        <mxCell id="T4Bvhr1qhh-hrmVg9kVq-19" value="&lt;font style=&quot;font-size: 24px;&quot;&gt;管理员权限&lt;/font&gt;" style="whiteSpace=wrap;html=1;rounded=1;shadow=0;comic=0;strokeWidth=2;fontFamily=Verdana;align=center;fontSize=12;fontStyle=1" vertex="1" parent="1">
          <mxGeometry x="827" y="391" width="40" height="260" as="geometry" />
        </mxCell>
        <mxCell id="T4Bvhr1qhh-hrmVg9kVq-20" value="&lt;span style=&quot;font-size: 24px;&quot;&gt;商品分享&lt;/span&gt;" style="whiteSpace=wrap;html=1;rounded=1;shadow=0;comic=0;strokeWidth=2;fontFamily=Verdana;align=center;fontSize=12;fontStyle=1" vertex="1" parent="1">
          <mxGeometry x="887" y="391" width="40" height="260" as="geometry" />
        </mxCell>
        <mxCell id="T4Bvhr1qhh-hrmVg9kVq-21" value="&lt;font style=&quot;font-size: 24px;&quot;&gt;最大千人群&lt;/font&gt;" style="whiteSpace=wrap;html=1;rounded=1;shadow=0;comic=0;strokeWidth=2;fontFamily=Verdana;align=center;fontSize=12;fontStyle=1" vertex="1" parent="1">
          <mxGeometry x="767" y="391" width="40" height="260" as="geometry" />
        </mxCell>
        <mxCell id="T4Bvhr1qhh-hrmVg9kVq-28" value="&lt;font style=&quot;font-size: 24px;&quot;&gt;单用户单商品普&lt;/font&gt;" style="whiteSpace=wrap;html=1;rounded=1;shadow=0;comic=0;strokeWidth=2;fontFamily=Verdana;align=center;fontSize=12;fontStyle=1" vertex="1" parent="1">
          <mxGeometry x="1017" y="391" width="40" height="260" as="geometry" />
        </mxCell>
        <mxCell id="T4Bvhr1qhh-hrmVg9kVq-29" value="&lt;font style=&quot;font-size: 24px;&quot;&gt;商品管理&lt;/font&gt;" style="whiteSpace=wrap;html=1;rounded=1;shadow=0;comic=0;strokeWidth=2;fontFamily=Verdana;align=center;fontSize=12;fontStyle=1" vertex="1" parent="1">
          <mxGeometry x="1084" y="391" width="40" height="260" as="geometry" />
        </mxCell>
        <mxCell id="T4Bvhr1qhh-hrmVg9kVq-30" value="&lt;font style=&quot;font-size: 24px;&quot;&gt;商品销量&lt;/font&gt;" style="whiteSpace=wrap;html=1;rounded=1;shadow=0;comic=0;strokeWidth=2;fontFamily=Verdana;align=center;fontSize=12;fontStyle=1" vertex="1" parent="1">
          <mxGeometry x="1257" y="386" width="40" height="260" as="geometry" />
        </mxCell>
        <mxCell id="T4Bvhr1qhh-hrmVg9kVq-31" value="&lt;font style=&quot;font-size: 24px;&quot;&gt;商品排行榜&lt;/font&gt;" style="whiteSpace=wrap;html=1;rounded=1;shadow=0;comic=0;strokeWidth=2;fontFamily=Verdana;align=center;fontSize=12;fontStyle=1" vertex="1" parent="1">
          <mxGeometry x="1317" y="386" width="40" height="260" as="geometry" />
        </mxCell>
        <mxCell id="T4Bvhr1qhh-hrmVg9kVq-32" value="&lt;font style=&quot;font-size: 24px;&quot;&gt;直播带货数据&lt;/font&gt;" style="whiteSpace=wrap;html=1;rounded=1;shadow=0;comic=0;strokeWidth=2;fontFamily=Verdana;align=center;fontSize=12;fontStyle=1" vertex="1" parent="1">
          <mxGeometry x="1377" y="386" width="40" height="260" as="geometry" />
        </mxCell>
        <mxCell id="T4Bvhr1qhh-hrmVg9kVq-33" value="&lt;font style=&quot;font-size: 24px;&quot;&gt;线上会议&lt;/font&gt;" style="whiteSpace=wrap;html=1;rounded=1;shadow=0;comic=0;strokeWidth=2;fontFamily=Verdana;align=center;fontSize=12;fontStyle=1" vertex="1" parent="1">
          <mxGeometry x="1637" y="386" width="40" height="260" as="geometry" />
        </mxCell>
        <mxCell id="T4Bvhr1qhh-hrmVg9kVq-34" value="&lt;font style=&quot;font-size: 24px;&quot;&gt;直播带货&lt;/font&gt;" style="whiteSpace=wrap;html=1;rounded=1;shadow=0;comic=0;strokeWidth=2;fontFamily=Verdana;align=center;fontSize=12;fontStyle=1" vertex="1" parent="1">
          <mxGeometry x="1537" y="386" width="40" height="260" as="geometry" />
        </mxCell>
        <mxCell id="T4Bvhr1qhh-hrmVg9kVq-36" value="&lt;font style=&quot;font-size: 24px;&quot;&gt;发货售后处理&lt;/font&gt;" style="whiteSpace=wrap;html=1;rounded=1;shadow=0;comic=0;strokeWidth=2;fontFamily=Verdana;align=center;fontSize=12;fontStyle=1" vertex="1" parent="1">
          <mxGeometry x="1147" y="391" width="40" height="260" as="geometry" />
        </mxCell>
      </root>
    </mxGraphModel>
  </diagram>
</mxfile>
